<svg width="197" height="51" viewBox="0 0 197 51" fill="none" xmlns="http://www.w3.org/2000/svg">
<path d="M4.86914 36.4512C2.58398 34.3301 1.44141 31.6992 1.44141 28.5586C1.44141 25.418 2.58398 22.7988 4.86914 20.7012C7.16602 18.5918 9.96094 17.5371 13.2539 17.5371C17.7891 17.5371 21.041 19.0605 23.0098 22.1074L17.4199 26.1504C17.0332 25.5293 16.4883 25.0195 15.7852 24.6211C15.082 24.2227 14.3672 24.0234 13.6406 24.0234C12.4219 24.0234 11.373 24.4746 10.4941 25.377C9.61523 26.2793 9.17578 27.3457 9.17578 28.5762C9.17578 29.7949 9.61523 30.8613 10.4941 31.7754C11.373 32.6777 12.4219 33.1289 13.6406 33.1289C14.3555 33.1289 15.0645 32.9297 15.7676 32.5312C16.4824 32.1211 17.0332 31.5996 17.4199 30.9668L23.0098 35.0098C21.0176 38.0801 17.7656 39.6152 13.2539 39.6152C9.96094 39.6152 7.16602 38.5605 4.86914 36.4512ZM48.0586 30.6504H32.7656C32.9531 31.4941 33.4395 32.2148 34.2246 32.8125C35.0215 33.4102 36.0469 33.709 37.3008 33.709C39.2461 33.709 41.0098 33.0938 42.5918 31.8633L46.4062 35.8008C44.9883 37.043 43.5996 37.9922 42.2402 38.6484C40.8926 39.293 39.1875 39.6152 37.125 39.6152C33.4805 39.5449 30.6094 38.4902 28.5117 36.4512C26.4258 34.4121 25.3828 31.7812 25.3828 28.5586C25.3828 25.418 26.4902 22.7988 28.7051 20.7012C30.9316 18.5918 33.6387 17.5371 36.8262 17.5371C40.0254 17.5371 42.7324 18.5918 44.9473 20.7012C47.1621 22.7988 48.2695 25.418 48.2695 28.5586C48.2695 29.3086 48.1992 30.0059 48.0586 30.6504ZM36.8262 23.5488C35.8418 23.5488 34.9746 23.8418 34.2246 24.4277C33.4863 25.002 33 25.6816 32.7656 26.4668H40.9043C40.6348 25.6699 40.125 24.9844 39.375 24.4102C38.6367 23.8359 37.7871 23.5488 36.8262 23.5488ZM64.002 17.502C65.3496 17.502 66.7441 17.8535 68.1855 18.5566L65.373 25.1836C64.8691 24.8672 64.1484 24.709 63.2109 24.709C62.0156 24.709 61.0488 25.0898 60.3105 25.8516C59.584 26.6016 59.2207 27.6504 59.2207 28.998V39H51.873V18.1523H58.9922V21.4043L59.1152 21.4746C59.5254 20.4199 60.1582 19.4941 61.0137 18.6973C61.8809 17.9004 62.877 17.502 64.002 17.502ZM84.1816 18.1523H91.5293V39H84.1816V36.0469L84.0059 35.9766C83.4316 37.0547 82.6406 37.9336 81.6328 38.6133C80.625 39.2812 79.4707 39.6152 78.1699 39.6152C75.7441 39.6152 73.8809 38.8887 72.5801 37.4355C71.291 35.9824 70.6465 33.9141 70.6465 31.2305V18.1523H77.9941V29.7539C77.9941 30.5742 78.2754 31.2949 78.8379 31.916C79.4004 32.5371 80.1504 32.8477 81.0879 32.8477C82.0254 32.8477 82.7754 32.5371 83.3379 31.916C83.9004 31.2832 84.1816 30.5625 84.1816 29.7539V18.1523Z" fill="#1A73E8"/>
<path d="M104.2 39C100.04 39 97.7202 35.76 97.7202 31.12V9.80005H100.92V31.04C100.92 33.72 101.92 35.7201 104.2 35.7201V39Z" fill="#1A73E8"/>
<path d="M119.033 40.0001C112.593 40.0001 108.433 34.3601 108.433 28.9201C108.433 22.9601 112.393 17.8801 118.553 17.8801C125.233 17.8801 130.033 22.7601 128.433 30.3601H111.913C112.113 33.8801 115.273 37.0801 119.393 37.1201C121.153 37.1201 124.793 36.1601 125.713 34.5601L128.233 36.5201C126.153 38.9201 122.713 40.0001 119.033 40.0001ZM111.913 27.5601H118.613H125.313C125.793 24.9201 124.033 20.7601 118.633 20.7601C114.393 20.7601 111.913 24.3201 111.913 27.5601Z" fill="#1A73E8"/>
<path d="M141.957 39C135.997 39 131.157 34.16 131.157 28.2C131.157 22.28 135.997 17.44 141.957 17.44C147.877 17.44 152.717 22.28 152.717 28.2V39H149.517V34.5201C148.117 37.16 145.237 39 141.957 39ZM141.957 35.8C146.117 35.8 149.517 32.4 149.517 28.2C149.517 24.04 146.117 20.64 141.957 20.64C137.757 20.64 134.357 24.04 134.357 28.2C134.357 32.4 137.757 35.8 141.957 35.8Z" fill="#1A73E8"/>
<path d="M159.244 39V18.08H162.324V20.68C163.484 18.64 166.404 17.8 169.404 18.08V21.32C165.844 20.84 162.444 22.7201 162.444 26V39H159.244Z" fill="#1A73E8"/>
<path d="M173.684 39V28.04C173.684 21.72 177.804 17.8801 183.644 17.8801C189.484 17.8801 193.564 21.72 193.564 28.04V39H190.364V28.04C190.364 23.52 187.764 21.08 183.644 21.08C179.524 21.08 176.884 23.6 176.884 28.04V39H173.684Z" fill="#1A73E8"/>
</svg>
