<svg width="86" height="86" viewBox="0 0 86 86" fill="none" xmlns="http://www.w3.org/2000/svg">
<g clip-path="url(#clip0_498_1120)">
<rect width="86" height="86" fill="#353535"/>
<g clip-path="url(#clip1_498_1120)">
<path d="M37.8862 18.3867C40.4709 15.9719 44.4442 16.8847 45.2027 20.0069C45.6992 22.0503 44.7333 24.1046 42.8516 25.0071C40.9883 25.9009 38.8074 25.3603 37.5197 23.6866C37.4631 23.613 37.3968 23.5469 37.2998 23.4377C35.0725 24.1014 32.8324 24.7515 30.6098 25.4571C30.3753 25.5315 30.1148 25.9178 30.0846 26.1843C29.8044 28.6543 27.8341 30.3354 25.3632 30.0345C24.4046 29.9178 23.7914 30.1057 23.2194 30.9308C22.3424 32.1957 21.2895 33.3365 20.3677 34.5724C20.1566 34.8555 20.054 35.3311 20.1111 35.684C20.2747 36.6948 20.3084 37.6538 19.8006 38.5923C19.6925 38.7922 19.7004 39.1608 19.8146 39.3589C20.4557 40.472 21.1212 41.5733 21.8389 42.6376C21.9902 42.8619 22.3843 42.9944 22.6832 43.0303C23.313 43.1061 23.9611 43.0361 24.5889 43.121C27.2662 43.4827 28.0167 45.4853 27.8962 47.6173C27.777 49.7259 25.856 51.5686 23.7932 51.6541C22.0186 51.7276 20.4936 51.3232 19.6338 49.5347C18.7832 47.7655 18.9898 46.0935 20.4172 44.2581C19.6497 43.0128 18.8791 41.7269 18.0601 40.473C17.9428 40.2934 17.5931 40.1889 17.3482 40.1838C15.9006 40.1537 14.6902 39.7007 14.026 38.3165C13.3499 36.9073 13.7361 35.5882 14.605 34.4299C15.2438 33.5786 16.2767 33.4854 17.2412 33.6138C17.8251 33.6916 18.1174 33.4991 18.4375 33.0909C19.4886 31.7508 20.5417 30.4107 21.6449 29.1142C22.0251 28.6675 22.078 28.3337 21.8758 27.7684C21.2479 26.0124 21.4144 24.3274 22.7522 22.9274C24.0337 21.5864 25.6237 21.2604 27.3362 21.893C27.9699 22.1271 28.5786 22.5751 29.0463 23.0705C29.4242 23.4707 29.7146 23.541 30.1943 23.3921C32.1206 22.7938 34.0528 22.2144 35.9877 21.6446C36.4494 21.5086 36.6748 21.321 36.8082 20.7746C37.0072 19.9597 37.4805 19.2123 37.8862 18.3867Z" fill="#1A73E8"/>
<path d="M57.3065 40.5002C58.1976 42.0883 58.1765 43.6114 57.3939 45.1689C57.2787 45.3983 57.3314 45.851 57.491 46.0568C58.3579 47.1742 59.3044 48.2296 60.1773 49.3426C60.5452 49.8116 60.849 49.9329 61.4572 49.7222C63.4937 49.0165 65.3499 49.43 66.8467 50.992C68.2787 52.4865 68.6907 54.2898 67.9773 56.253C67.2535 58.2447 65.785 59.407 63.6767 59.6251C61.6505 59.8347 60.0176 59.0402 58.891 57.3447C57.7571 55.6381 57.7906 53.8418 58.6886 52.0373C58.8023 51.8088 58.955 51.5998 59.1294 51.3174C57.9478 49.8937 56.7617 48.4646 55.5265 46.9762C54.0627 47.607 52.6071 47.4876 51.1543 46.8923C49.6046 46.2573 48.6877 44.2608 49.1338 42.3608C49.4972 40.813 50.436 39.7501 51.8855 39.0968C52.1414 38.9815 52.469 38.6432 52.4717 38.4046C52.5098 34.9952 52.4977 31.5854 52.4977 28.2013C49.7731 26.9433 48.6326 25.1515 49.0977 22.9212C49.5656 20.6772 51.5534 19.0013 53.7339 19.0124C55.8536 19.0233 57.4632 20.3044 57.8942 22.3237C58.3901 24.6468 57.2504 26.5127 54.5434 27.7482C54.5434 31.2839 54.5434 34.8438 54.5434 38.1142C55.5465 38.9702 56.4073 39.7049 57.3065 40.5002Z" fill="#1A73E8"/>
<path d="M31.0521 32.3574C33.4325 31.56 35.4393 32.1216 36.3609 34.0098C36.7571 34.8213 36.8 35.8537 36.8045 36.7867C36.8074 37.3808 36.9401 37.7312 37.4115 38.0487C38.2364 38.6044 39.0488 39.1815 39.8364 39.7883C40.5303 40.3229 41.1806 40.6334 42.1595 40.4994C43.8664 40.2656 45.1367 41.3885 45.314 43.0039C45.4818 44.5324 44.4656 45.7583 42.8125 46.0952C42.5529 46.1481 42.2634 46.3856 42.1229 46.6185C41.8267 47.1092 41.6305 47.6586 41.3746 48.1747C40.894 49.144 40.5789 49.9601 41.2047 51.1551C42.138 52.9371 41.1044 55.0246 39.2994 55.7455C37.5439 56.4467 35.5574 55.6105 34.8157 53.8582C34.0803 52.1206 34.8792 50.1386 36.6291 49.363C36.7465 49.311 36.8772 49.2163 36.9879 49.2329C38.5215 49.4625 38.7888 48.2651 39.2396 47.2718C39.438 46.8346 39.7136 46.4151 39.8164 45.957C39.9092 45.5433 39.8401 45.085 39.7917 44.652C39.764 44.4049 39.5303 44.1509 39.5688 43.9311C39.7763 42.7466 38.9719 42.2371 38.1701 41.6899C37.4013 41.1652 36.6318 40.6352 35.9127 40.0469C35.3805 39.6115 34.9626 39.5423 34.3068 39.8894C32.6705 40.7554 30.3911 40.2466 29.3028 38.8896C28.0795 37.3643 27.9946 35.3245 29.211 33.8414C29.6854 33.263 30.3873 32.8697 31.0521 32.3574Z" fill="#FDB32A"/>
<path d="M54.9965 61.4716C55.3687 62.0484 55.7169 62.3111 56.4432 62.1795C57.8263 61.9287 59.1999 62.83 59.7481 64.1464C60.2928 65.4544 59.8989 67.0134 58.7978 67.9076C57.6641 68.8282 56.1461 68.9029 54.9606 68.0964C53.7863 67.2976 53.1633 65.7658 53.699 64.4449C54.0038 63.6932 53.8163 63.264 53.374 62.7456C52.8316 62.1099 52.3205 61.4456 51.8193 60.7758C51.2121 59.9644 50.7212 59.3109 49.4079 59.4452C47.5955 59.6305 46.1098 57.676 46.3589 55.8863C46.6169 54.0326 48.4152 52.6924 50.1593 53.054C52.0667 53.4495 53.2653 55.2952 52.656 57.1232C52.3909 57.9183 52.5237 58.4173 53.0338 58.9958C53.7135 59.7666 54.3178 60.6052 54.9965 61.4716Z" fill="#1A73E8"/>
<path d="M66.9268 35.5653C67.0776 35.9623 67.2187 36.2842 67.3356 36.6142C67.6931 37.6236 68.0571 38.4294 69.3674 38.7864C71.1407 39.2695 71.7902 41.3567 70.9621 42.9634C70.1399 44.5583 68.0952 45.1472 66.5463 44.235C64.9705 43.307 64.4872 41.3233 65.5695 39.8486C65.9703 39.3025 66.001 38.8776 65.7561 38.2924C65.1905 36.9408 64.715 35.5526 64.13 34.2097C63.9972 33.9049 63.6022 33.5904 63.2696 33.5089C61.8217 33.1545 60.7622 32.0908 60.6673 30.7718C60.5609 29.2933 61.3018 28.0615 62.5989 27.5605C63.916 27.0517 65.4163 27.4503 66.2783 28.5379C67.1503 29.6383 67.2177 31.1176 66.3283 32.2527C65.9483 32.7376 65.9424 33.1223 66.1677 33.6276C66.4401 34.2385 66.6622 34.8708 66.9268 35.5653Z" fill="#FDB32A"/>
<path d="M44.3876 29.3469C46.4792 29.2613 47.6334 30.021 47.9418 31.6172C48.2269 33.0931 47.3858 34.5741 45.9491 35.1256C44.5138 35.6766 42.8771 35.1222 42.0623 33.8089C41.0269 32.1402 42.1028 30.0146 44.3876 29.3469Z" fill="#FDB32A"/>
</g>
</g>
<defs>
<clipPath id="clip0_498_1120">
<rect width="86" height="86" fill="white"/>
</clipPath>
<clipPath id="clip1_498_1120">
<rect width="58.6364" height="58.6364" fill="white" transform="translate(13.6816 13.6818)"/>
</clipPath>
</defs>
</svg>
