<svg width="197" height="128" viewBox="0 0 197 128" fill="none" xmlns="http://www.w3.org/2000/svg">
<g clip-path="url(#clip0_198_793)">
<path d="M89.2919 16.7065C92.1773 14.0109 96.6126 15.0299 97.4593 18.5151C98.0135 20.7961 96.9352 23.0892 94.8348 24.0967C92.7548 25.0944 90.3203 24.4909 88.8829 22.6226C88.8197 22.5405 88.7456 22.4667 88.6374 22.3448C86.1512 23.0857 83.6506 23.8113 81.1695 24.599C80.9078 24.6821 80.6169 25.1133 80.5832 25.4108C80.2705 28.168 78.071 30.0445 75.3128 29.7087C74.2427 29.5784 73.5583 29.7882 72.9197 30.7092C71.9407 32.1212 70.7654 33.3946 69.7365 34.7742C69.5008 35.0903 69.3863 35.6212 69.45 36.0151C69.6326 37.1434 69.6703 38.214 69.1035 39.2616C68.9827 39.4847 68.9916 39.8961 69.119 40.1174C69.8347 41.3598 70.5776 42.5892 71.3787 43.7772C71.5476 44.0277 71.9876 44.1755 72.3212 44.2156C73.0243 44.3002 73.7477 44.2221 74.4485 44.3168C77.4371 44.7206 78.2748 46.9561 78.1403 49.336C78.0073 51.6898 75.8629 53.7467 73.5602 53.8422C71.5794 53.9242 69.877 53.4728 68.9172 51.4764C67.9677 49.5014 68.1983 47.635 69.7917 45.5862C68.935 44.1961 68.0748 42.7607 67.1605 41.3609C67.0295 41.1604 66.6392 41.0439 66.3658 41.0382C64.7499 41.0045 63.3987 40.4988 62.6574 38.9536C61.9027 37.3806 62.3337 35.9081 63.3037 34.6152C64.0167 33.6649 65.1697 33.5608 66.2464 33.7042C66.8982 33.791 67.2244 33.5761 67.5818 33.1205C68.7551 31.6246 69.9307 30.1286 71.1622 28.6814C71.5865 28.1827 71.6456 27.8101 71.4199 27.179C70.719 25.2189 70.9048 23.3379 72.3982 21.7751C73.8287 20.2782 75.6036 19.9143 77.5153 20.6205C78.2226 20.8818 78.9021 21.3819 79.4242 21.9349C79.846 22.3817 80.1702 22.4601 80.7057 22.2938C82.856 21.626 85.0129 20.9792 87.1728 20.3432C87.6882 20.1914 87.9397 19.9819 88.0886 19.3721C88.3108 18.4624 88.8391 17.628 89.2919 16.7065Z" fill="#1A73E8"/>
<path d="M110.971 41.3914C111.965 43.1641 111.942 44.8643 111.068 46.603C110.939 46.859 110.998 47.3643 111.177 47.5941C112.144 48.8414 113.201 50.0195 114.175 51.2619C114.586 51.7855 114.925 51.9209 115.604 51.6857C117.877 50.898 119.949 51.3595 121.62 53.1031C123.219 54.7714 123.679 56.7844 122.882 58.9759C122.074 61.1991 120.435 62.4966 118.081 62.7401C115.82 62.9741 113.997 62.0872 112.739 60.1945C111.473 58.2895 111.511 56.2843 112.513 54.27C112.64 54.0149 112.811 53.7816 113.005 53.4664C111.686 51.8771 110.362 50.2818 108.983 48.6204C107.35 49.3245 105.725 49.1913 104.103 48.5267C102.373 47.8178 101.35 45.5892 101.848 43.4683C102.253 41.7405 103.301 40.554 104.919 39.8248C105.205 39.6961 105.571 39.3184 105.574 39.052C105.616 35.2463 105.603 31.4399 105.603 27.6623C102.561 26.2581 101.288 24.258 101.807 21.7683C102.33 19.2633 104.549 17.3926 106.982 17.405C109.349 17.4172 111.145 18.8472 111.627 21.1013C112.18 23.6946 110.908 25.7774 107.886 27.1565C107.886 31.1034 107.886 35.0773 107.886 38.7279C109.006 39.6835 109.967 40.5035 110.971 41.3914Z" fill="#1A73E8"/>
<path d="M81.6633 32.3017C84.3204 31.4116 86.5606 32.0385 87.5894 34.1462C88.0316 35.0521 88.0795 36.2045 88.0846 37.246C88.0878 37.9092 88.2359 38.3003 88.7621 38.6548C89.683 39.2751 90.5898 39.9193 91.469 40.5967C92.2436 41.1934 92.9695 41.5401 94.0622 41.3904C95.9676 41.1295 97.3856 42.3829 97.5835 44.1861C97.7708 45.8924 96.6365 47.2609 94.7912 47.6369C94.5014 47.6959 94.1782 47.9611 94.0213 48.2211C93.6908 48.7688 93.4717 49.3821 93.1861 49.9582C92.6496 51.0402 92.2979 51.9512 92.9964 53.2852C94.0382 55.2744 92.8845 57.6046 90.8695 58.4094C88.9099 59.192 86.6924 58.2586 85.8645 56.3026C85.0436 54.3629 85.9354 52.1505 87.8888 51.2847C88.0198 51.2266 88.1657 51.1209 88.2893 51.1394C90.0012 51.3958 90.2996 50.0591 90.8028 48.9503C91.0243 48.4623 91.332 47.994 91.4467 47.4826C91.5502 47.0208 91.4731 46.5092 91.4191 46.0259C91.3882 45.75 91.1273 45.4665 91.1703 45.2212C91.4019 43.8989 90.5039 43.3302 89.6089 42.7193C88.7508 42.1336 87.8918 41.5421 87.0891 40.8853C86.495 40.3993 86.0285 40.322 85.2964 40.7095C83.4699 41.6762 80.9254 41.1082 79.7106 39.5935C78.345 37.8907 78.2503 35.6137 79.6081 33.9583C80.1376 33.3126 80.9212 32.8735 81.6633 32.3017Z" fill="#FDB32A"/>
<path d="M108.392 64.8012C108.807 65.4451 109.196 65.7383 110.007 65.5914C111.551 65.3115 113.084 66.3176 113.696 67.787C114.304 69.2472 113.864 70.9874 112.635 71.9856C111.369 73.0133 109.675 73.0966 108.352 72.1963C107.041 71.3046 106.345 69.5948 106.943 68.1202C107.284 67.2812 107.074 66.8021 106.581 66.2233C105.975 65.5137 105.405 64.7722 104.845 64.0245C104.167 63.1187 103.619 62.3893 102.153 62.5392C100.13 62.746 98.4718 60.5642 98.7498 58.5665C99.0378 56.4972 101.045 55.0011 102.992 55.4048C105.121 55.8463 106.459 57.9067 105.779 59.9471C105.483 60.8347 105.631 61.3918 106.201 62.0375C106.96 62.898 107.634 63.8341 108.392 64.8012Z" fill="#1A73E8"/>
<path d="M121.71 35.8826C121.878 36.3258 122.035 36.6851 122.166 37.0535C122.565 38.1802 122.971 39.0797 124.434 39.4782C126.413 40.0175 127.138 42.3474 126.214 44.1409C125.296 45.9213 123.014 46.5786 121.285 45.5604C119.526 44.5245 118.986 42.3102 120.194 40.664C120.642 40.0543 120.676 39.58 120.403 38.9267C119.771 37.418 119.241 35.8684 118.588 34.3694C118.439 34.0291 117.998 33.678 117.627 33.5871C116.011 33.1914 114.828 32.0041 114.722 30.5317C114.603 28.8813 115.43 27.5063 116.878 26.947C118.349 26.379 120.023 26.8239 120.986 28.038C121.959 29.2664 122.034 30.9178 121.041 32.1848C120.617 32.7261 120.611 33.1555 120.862 33.7196C121.166 34.4015 121.414 35.1073 121.71 35.8826Z" fill="#FDB32A"/>
<path d="M96.5496 28.9411C98.8844 28.8455 100.173 29.6935 100.517 31.4754C100.835 33.1229 99.8964 34.7761 98.2927 35.3917C96.6905 36.0068 94.8635 35.3879 93.9539 33.922C92.7982 32.0592 93.9992 29.6865 96.5496 28.9411Z" fill="#FDB32A"/>
</g>
<path d="M4.86914 113.451C2.58398 111.33 1.44141 108.699 1.44141 105.559C1.44141 102.418 2.58398 99.7988 4.86914 97.7012C7.16602 95.5918 9.96094 94.5371 13.2539 94.5371C17.7891 94.5371 21.041 96.0605 23.0098 99.1074L17.4199 103.15C17.0332 102.529 16.4883 102.02 15.7852 101.621C15.082 101.223 14.3672 101.023 13.6406 101.023C12.4219 101.023 11.373 101.475 10.4941 102.377C9.61523 103.279 9.17578 104.346 9.17578 105.576C9.17578 106.795 9.61523 107.861 10.4941 108.775C11.373 109.678 12.4219 110.129 13.6406 110.129C14.3555 110.129 15.0645 109.93 15.7676 109.531C16.4824 109.121 17.0332 108.6 17.4199 107.967L23.0098 112.01C21.0176 115.08 17.7656 116.615 13.2539 116.615C9.96094 116.615 7.16602 115.561 4.86914 113.451ZM48.0586 107.65H32.7656C32.9531 108.494 33.4395 109.215 34.2246 109.812C35.0215 110.41 36.0469 110.709 37.3008 110.709C39.2461 110.709 41.0098 110.094 42.5918 108.863L46.4062 112.801C44.9883 114.043 43.5996 114.992 42.2402 115.648C40.8926 116.293 39.1875 116.615 37.125 116.615C33.4805 116.545 30.6094 115.49 28.5117 113.451C26.4258 111.412 25.3828 108.781 25.3828 105.559C25.3828 102.418 26.4902 99.7988 28.7051 97.7012C30.9316 95.5918 33.6387 94.5371 36.8262 94.5371C40.0254 94.5371 42.7324 95.5918 44.9473 97.7012C47.1621 99.7988 48.2695 102.418 48.2695 105.559C48.2695 106.309 48.1992 107.006 48.0586 107.65ZM36.8262 100.549C35.8418 100.549 34.9746 100.842 34.2246 101.428C33.4863 102.002 33 102.682 32.7656 103.467H40.9043C40.6348 102.67 40.125 101.984 39.375 101.41C38.6367 100.836 37.7871 100.549 36.8262 100.549ZM64.002 94.502C65.3496 94.502 66.7441 94.8535 68.1855 95.5566L65.373 102.184C64.8691 101.867 64.1484 101.709 63.2109 101.709C62.0156 101.709 61.0488 102.09 60.3105 102.852C59.584 103.602 59.2207 104.65 59.2207 105.998V116H51.873V95.1523H58.9922V98.4043L59.1152 98.4746C59.5254 97.4199 60.1582 96.4941 61.0137 95.6973C61.8809 94.9004 62.877 94.502 64.002 94.502ZM84.1816 95.1523H91.5293V116H84.1816V113.047L84.0059 112.977C83.4316 114.055 82.6406 114.934 81.6328 115.613C80.625 116.281 79.4707 116.615 78.1699 116.615C75.7441 116.615 73.8809 115.889 72.5801 114.436C71.291 112.982 70.6465 110.914 70.6465 108.23V95.1523H77.9941V106.754C77.9941 107.574 78.2754 108.295 78.8379 108.916C79.4004 109.537 80.1504 109.848 81.0879 109.848C82.0254 109.848 82.7754 109.537 83.3379 108.916C83.9004 108.283 84.1816 107.562 84.1816 106.754V95.1523Z" fill="#1A73E8"/>
<path d="M104.2 116C100.04 116 97.7202 112.76 97.7202 108.12V86.8H100.92V108.04C100.92 110.72 101.92 112.72 104.2 112.72V116Z" fill="#1A73E8"/>
<path d="M119.033 117C112.593 117 108.433 111.36 108.433 105.92C108.433 99.9601 112.393 94.8801 118.553 94.8801C125.233 94.8801 130.033 99.7601 128.433 107.36H111.913C112.113 110.88 115.273 114.08 119.393 114.12C121.153 114.12 124.793 113.16 125.713 111.56L128.233 113.52C126.153 115.92 122.713 117 119.033 117ZM111.913 104.56H118.613H125.313C125.793 101.92 124.033 97.7601 118.633 97.7601C114.393 97.7601 111.913 101.32 111.913 104.56Z" fill="#1A73E8"/>
<path d="M141.957 116C135.997 116 131.157 111.16 131.157 105.2C131.157 99.28 135.997 94.44 141.957 94.44C147.877 94.44 152.717 99.28 152.717 105.2V116H149.517V111.52C148.117 114.16 145.237 116 141.957 116ZM141.957 112.8C146.117 112.8 149.517 109.4 149.517 105.2C149.517 101.04 146.117 97.64 141.957 97.64C137.757 97.64 134.357 101.04 134.357 105.2C134.357 109.4 137.757 112.8 141.957 112.8Z" fill="#1A73E8"/>
<path d="M159.244 116V95.08H162.324V97.68C163.484 95.64 166.404 94.8 169.404 95.08V98.32C165.844 97.84 162.444 99.7201 162.444 103V116H159.244Z" fill="#1A73E8"/>
<path d="M173.684 116V105.04C173.684 98.72 177.804 94.8801 183.644 94.8801C189.484 94.8801 193.564 98.72 193.564 105.04V116H190.364V105.04C190.364 100.52 187.764 98.08 183.644 98.08C179.524 98.08 176.884 100.6 176.884 105.04V116H173.684Z" fill="#1A73E8"/>
<defs>
<clipPath id="clip0_198_793">
<rect width="65.4545" height="65.4545" fill="white" transform="translate(62.2729 11.4545)"/>
</clipPath>
</defs>
</svg>
