<svg width="290" height="95" viewBox="0 0 290 95" fill="none" xmlns="http://www.w3.org/2000/svg">
<g clip-path="url(#clip0_198_792)">
<path d="M41.8513 16.5325C44.7066 13.865 49.0957 14.8733 49.9336 18.3222C50.482 20.5795 49.415 22.8487 47.3364 23.8457C45.2781 24.833 42.8689 24.2359 41.4465 22.387C41.384 22.3057 41.3107 22.2327 41.2036 22.1121C38.7433 22.8452 36.2687 23.5634 33.8135 24.3428C33.5545 24.425 33.2667 24.8517 33.2333 25.1462C32.9238 27.8746 30.7472 29.7316 28.0178 29.3993C26.9589 29.2704 26.2816 29.4779 25.6496 30.3894C24.6809 31.7866 23.5178 33.0468 22.4996 34.412C22.2663 34.7248 22.153 35.2502 22.2161 35.64C22.3968 36.7565 22.434 37.8159 21.8731 38.8526C21.7537 39.0734 21.7624 39.4806 21.8885 39.6995C22.5968 40.929 23.3319 42.1456 24.1247 43.3212C24.2918 43.5691 24.7272 43.7154 25.0573 43.7551C25.7531 43.8388 26.4689 43.7615 27.1625 43.8552C30.12 44.2548 30.949 46.467 30.8159 48.8222C30.6842 51.1514 28.5622 53.1869 26.2835 53.2813C24.3233 53.3626 22.6386 52.9159 21.6888 50.9402C20.7492 48.9858 20.9774 47.1389 22.5542 45.1114C21.7064 43.7357 20.8552 42.3153 19.9504 40.9301C19.8208 40.7317 19.4345 40.6164 19.164 40.6107C17.5649 40.5775 16.2278 40.077 15.4942 38.5479C14.7473 36.9913 15.1739 35.5341 16.1338 34.2547C16.8394 33.3143 17.9804 33.2113 19.0458 33.3532C19.6909 33.4391 20.0137 33.2264 20.3673 32.7755C21.5284 31.2952 22.6917 29.8148 23.9104 28.3827C24.3304 27.8892 24.3888 27.5205 24.1655 26.896C23.4718 24.9562 23.6557 23.0949 25.1336 21.5484C26.5492 20.067 28.3056 19.7069 30.1973 20.4058C30.8973 20.6644 31.5697 21.1592 32.0863 21.7064C32.5038 22.1486 32.8246 22.2262 33.3545 22.0617C35.4824 21.4008 37.6168 20.7607 39.7542 20.1313C40.2642 19.9811 40.5132 19.7738 40.6605 19.1703C40.8803 18.2701 41.4032 17.4445 41.8513 16.5325Z" fill="#1A73E8"/>
<path d="M63.3041 40.9602C64.2884 42.7144 64.2651 44.397 63.4006 46.1175C63.2734 46.3708 63.3315 46.8709 63.5079 47.0982C64.4655 48.3326 65.511 49.4985 66.4753 50.7279C66.8817 51.246 67.2173 51.3801 67.8892 51.1472C70.1388 50.3677 72.1892 50.8245 73.8426 52.5499C75.4246 54.2008 75.8797 56.1928 75.0916 58.3615C74.292 60.5616 72.6698 61.8456 70.3409 62.0865C68.1027 62.3181 66.2989 61.4404 65.0544 59.5675C63.8018 57.6823 63.8388 55.698 64.8308 53.7046C64.9564 53.4522 65.1251 53.2213 65.3178 52.9094C64.0125 51.3367 62.7022 49.758 61.3377 48.1139C59.7208 48.8106 58.1128 48.6788 56.508 48.0212C54.7961 47.3197 53.7834 45.1143 54.2761 43.0155C54.6776 41.3057 55.7146 40.1315 57.3157 39.4099C57.5985 39.2825 57.9603 38.9088 57.9633 38.6452C58.0054 34.8791 57.992 31.1124 57.992 27.3741C54.9823 25.9845 53.7224 24.0053 54.2362 21.5415C54.7531 19.0626 56.949 17.2114 59.3575 17.2237C61.6991 17.2357 63.4772 18.6509 63.9533 20.8815C64.5011 23.4477 63.2421 25.5089 60.2518 26.8736C60.2518 30.7793 60.2518 34.7119 60.2518 38.3245C61.3598 39.2701 62.3107 40.0816 63.3041 40.9602Z" fill="#1A73E8"/>
<path d="M34.3022 31.9652C36.9316 31.0843 39.1485 31.7047 40.1666 33.7905C40.6041 34.687 40.6516 35.8274 40.6566 36.858C40.6597 37.5143 40.8063 37.9013 41.327 38.2521C42.2383 38.8659 43.1357 39.5035 44.0057 40.1738C44.7722 40.7643 45.4906 41.1073 46.5719 40.9593C48.4575 40.701 49.8607 41.9414 50.0566 43.7258C50.2419 45.4143 49.1194 46.7686 47.2933 47.1406C47.0066 47.1991 46.6868 47.4614 46.5315 47.7188C46.2044 48.2608 45.9876 48.8677 45.705 49.4377C45.174 50.5086 44.826 51.4101 45.5173 52.7301C46.5482 54.6986 45.4065 57.0046 43.4125 57.8009C41.4733 58.5754 39.2789 57.6517 38.4596 55.7161C37.6472 53.7966 38.5297 51.6072 40.4628 50.7504C40.5924 50.693 40.7369 50.5884 40.8592 50.6067C42.5532 50.8604 42.8485 49.5377 43.3465 48.4404C43.5656 47.9574 43.8701 47.4941 43.9836 46.988C44.0861 46.531 44.0098 46.0248 43.9563 45.5465C43.9258 45.2735 43.6676 44.9929 43.7102 44.7501C43.9393 43.4416 43.0507 42.8788 42.1651 42.2743C41.3158 41.6947 40.4658 41.1093 39.6714 40.4594C39.0836 39.9785 38.6219 39.902 37.8975 40.2854C36.09 41.242 33.5719 40.68 32.3698 39.181C31.0184 37.496 30.9247 35.2428 32.2684 33.6045C32.7924 32.9656 33.5678 32.5311 34.3022 31.9652Z" fill="#FDB32A"/>
<path d="M60.752 64.1261C61.1631 64.7634 61.5477 65.0535 62.35 64.9081C63.8779 64.6311 65.3952 65.6267 66.0007 67.0808C66.6025 68.5258 66.1674 70.2479 64.951 71.2357C63.6987 72.2527 62.0219 72.3352 60.7122 71.4443C59.4151 70.5618 58.7268 68.8698 59.3186 67.4106C59.6553 66.5803 59.4482 66.1062 58.9596 65.5335C58.3604 64.8312 57.7958 64.0975 57.2422 63.3576C56.5715 62.4612 56.0293 61.7394 54.5785 61.8877C52.5764 62.0924 50.9353 59.9333 51.2104 57.9564C51.4954 55.9087 53.4819 54.4282 55.4085 54.8277C57.5156 55.2646 58.8396 57.3034 58.1664 59.3227C57.8736 60.201 58.0204 60.7523 58.5838 61.3912C59.3347 62.2427 60.0022 63.1691 60.752 64.1261Z" fill="#1A73E8"/>
<path d="M73.9311 35.5088C74.0976 35.9474 74.2535 36.3029 74.3826 36.6675C74.7775 37.7825 75.1796 38.6726 76.627 39.067C78.586 39.6007 79.3035 41.9063 78.3886 43.6811C77.4804 45.443 75.2217 46.0935 73.5108 45.0859C71.77 44.0607 71.2362 41.8694 72.4317 40.2404C72.8744 39.6371 72.9084 39.1678 72.6379 38.5213C72.0131 37.0283 71.4878 35.4948 70.8416 34.0114C70.6949 33.6746 70.2586 33.3272 69.8911 33.2373C68.2917 32.8457 67.1214 31.6708 67.0165 30.2137C66.899 28.5805 67.7174 27.2197 69.1502 26.6663C70.6051 26.1043 72.2625 26.5445 73.2146 27.746C74.178 28.9615 74.2524 30.5957 73.2699 31.8495C72.8502 32.3852 72.8437 32.8102 73.0926 33.3684C73.3934 34.0431 73.6388 34.7416 73.9311 35.5088Z" fill="#FDB32A"/>
<path d="M49.0331 28.6396C51.3436 28.5451 52.6186 29.3842 52.9593 31.1475C53.2743 32.7779 52.3451 34.4138 50.7581 35.0231C49.1726 35.6318 47.3645 35.0193 46.4645 33.5686C45.3208 31.7253 46.5093 29.3772 49.0331 28.6396Z" fill="#FDB32A"/>
</g>
<path d="M95.8691 50.4512C93.584 48.3301 92.4414 45.6992 92.4414 42.5586C92.4414 39.418 93.584 36.7988 95.8691 34.7012C98.166 32.5918 100.961 31.5371 104.254 31.5371C108.789 31.5371 112.041 33.0605 114.01 36.1074L108.42 40.1504C108.033 39.5293 107.488 39.0195 106.785 38.6211C106.082 38.2227 105.367 38.0234 104.641 38.0234C103.422 38.0234 102.373 38.4746 101.494 39.377C100.615 40.2793 100.176 41.3457 100.176 42.5762C100.176 43.7949 100.615 44.8613 101.494 45.7754C102.373 46.6777 103.422 47.1289 104.641 47.1289C105.355 47.1289 106.064 46.9297 106.768 46.5312C107.482 46.1211 108.033 45.5996 108.42 44.9668L114.01 49.0098C112.018 52.0801 108.766 53.6152 104.254 53.6152C100.961 53.6152 98.166 52.5605 95.8691 50.4512ZM139.059 44.6504H123.766C123.953 45.4941 124.439 46.2148 125.225 46.8125C126.021 47.4102 127.047 47.709 128.301 47.709C130.246 47.709 132.01 47.0938 133.592 45.8633L137.406 49.8008C135.988 51.043 134.6 51.9922 133.24 52.6484C131.893 53.293 130.188 53.6152 128.125 53.6152C124.48 53.5449 121.609 52.4902 119.512 50.4512C117.426 48.4121 116.383 45.7812 116.383 42.5586C116.383 39.418 117.49 36.7988 119.705 34.7012C121.932 32.5918 124.639 31.5371 127.826 31.5371C131.025 31.5371 133.732 32.5918 135.947 34.7012C138.162 36.7988 139.27 39.418 139.27 42.5586C139.27 43.3086 139.199 44.0059 139.059 44.6504ZM127.826 37.5488C126.842 37.5488 125.975 37.8418 125.225 38.4277C124.486 39.002 124 39.6816 123.766 40.4668H131.904C131.635 39.6699 131.125 38.9844 130.375 38.4102C129.637 37.8359 128.787 37.5488 127.826 37.5488ZM155.002 31.502C156.35 31.502 157.744 31.8535 159.186 32.5566L156.373 39.1836C155.869 38.8672 155.148 38.709 154.211 38.709C153.016 38.709 152.049 39.0898 151.311 39.8516C150.584 40.6016 150.221 41.6504 150.221 42.998V53H142.873V32.1523H149.992V35.4043L150.115 35.4746C150.525 34.4199 151.158 33.4941 152.014 32.6973C152.881 31.9004 153.877 31.502 155.002 31.502ZM175.182 32.1523H182.529V53H175.182V50.0469L175.006 49.9766C174.432 51.0547 173.641 51.9336 172.633 52.6133C171.625 53.2812 170.471 53.6152 169.17 53.6152C166.744 53.6152 164.881 52.8887 163.58 51.4355C162.291 49.9824 161.646 47.9141 161.646 45.2305V32.1523H168.994V43.7539C168.994 44.5742 169.275 45.2949 169.838 45.916C170.4 46.5371 171.15 46.8477 172.088 46.8477C173.025 46.8477 173.775 46.5371 174.338 45.916C174.9 45.2832 175.182 44.5625 175.182 43.7539V32.1523Z" fill="#1A73E8"/>
<path d="M195.2 53C191.04 53 188.72 49.76 188.72 45.12V23.8H191.92V45.04C191.92 47.72 192.92 49.7201 195.2 49.7201V53Z" fill="#1A73E8"/>
<path d="M210.033 54.0001C203.593 54.0001 199.433 48.3601 199.433 42.9201C199.433 36.9601 203.393 31.8801 209.553 31.8801C216.233 31.8801 221.033 36.7601 219.433 44.3601H202.913C203.113 47.8801 206.273 51.0801 210.393 51.1201C212.153 51.1201 215.793 50.1601 216.713 48.5601L219.233 50.5201C217.153 52.9201 213.713 54.0001 210.033 54.0001ZM202.913 41.5601H209.613H216.313C216.793 38.9201 215.033 34.7601 209.633 34.7601C205.393 34.7601 202.913 38.3201 202.913 41.5601Z" fill="#1A73E8"/>
<path d="M232.957 53C226.997 53 222.157 48.16 222.157 42.2C222.157 36.28 226.997 31.44 232.957 31.44C238.877 31.44 243.717 36.28 243.717 42.2V53H240.517V48.5201C239.117 51.16 236.237 53 232.957 53ZM232.957 49.8C237.117 49.8 240.517 46.4 240.517 42.2C240.517 38.04 237.117 34.64 232.957 34.64C228.757 34.64 225.357 38.04 225.357 42.2C225.357 46.4 228.757 49.8 232.957 49.8Z" fill="#1A73E8"/>
<path d="M250.244 53V32.08H253.324V34.68C254.484 32.64 257.404 31.8 260.404 32.08V35.32C256.844 34.84 253.444 36.7201 253.444 40V53H250.244Z" fill="#1A73E8"/>
<path d="M264.684 53V42.04C264.684 35.72 268.804 31.8801 274.644 31.8801C280.484 31.8801 284.564 35.72 284.564 42.04V53H281.364V42.04C281.364 37.52 278.764 35.08 274.644 35.08C270.524 35.08 267.884 37.6 267.884 42.04V53H264.684Z" fill="#1A73E8"/>
<defs>
<clipPath id="clip0_198_792">
<rect width="64.7727" height="64.7727" fill="white" transform="translate(15.1138 11.3352)"/>
</clipPath>
</defs>
</svg>
