<svg width="86" height="86" viewBox="0 0 86 86" fill="none" xmlns="http://www.w3.org/2000/svg">
<g clip-path="url(#clip0_498_1193)">
<g clip-path="url(#clip1_498_1193)">
<path d="M37.6114 18.3867C40.2109 15.9719 44.2069 16.8847 44.9698 20.0069C45.4691 22.0503 44.4976 24.1046 42.6052 25.0071C40.7312 25.9009 38.5378 25.3603 37.2429 23.6866C37.1859 23.613 37.1192 23.5469 37.0217 23.4377C34.7817 24.1014 32.5288 24.7515 30.2934 25.4571C30.0576 25.5315 29.7956 25.9178 29.7652 26.1843C29.4835 28.6543 27.5018 30.3354 25.0168 30.0345C24.0528 29.9178 23.4361 30.1057 22.8608 30.9308C21.9788 32.1957 20.9199 33.3365 19.9929 34.5724C19.7805 34.8555 19.6773 35.3311 19.7348 35.684C19.8993 36.6948 19.9332 37.6538 19.4225 38.5923C19.3138 38.7922 19.3217 39.1608 19.4366 39.3589C20.0814 40.472 20.7507 41.5733 21.4724 42.6376C21.6246 42.8619 22.021 42.9944 22.3215 43.0303C22.955 43.1061 23.6067 43.0361 24.2381 43.121C26.9308 43.4827 27.6855 45.4853 27.5643 47.6173C27.4444 49.7259 25.5124 51.5686 23.4378 51.6541C21.6532 51.7276 20.1194 51.3232 19.2547 49.5347C18.3993 47.7655 18.607 46.0935 20.0426 44.2581C19.2708 43.0128 18.4957 41.7269 17.672 40.473C17.554 40.2934 17.2023 40.1889 16.956 40.1838C15.5002 40.1537 14.2828 39.7007 13.6149 38.3165C12.9349 36.9073 13.3233 35.5882 14.1972 34.4299C14.8396 33.5786 15.8784 33.4854 16.8484 33.6138C17.4357 33.6916 17.7296 33.4991 18.0516 33.0909C19.1087 31.7508 20.1678 30.4107 21.2773 29.1142C21.6597 28.6675 21.7129 28.3337 21.5095 27.7684C20.878 26.0124 21.0455 24.3274 22.391 22.9274C23.6798 21.5864 25.2788 21.2604 27.0012 21.893C27.6385 22.1271 28.2506 22.5751 28.721 23.0705C29.101 23.4707 29.3932 23.541 29.8755 23.3921C31.8129 22.7938 33.7562 22.2144 35.7021 21.6446C36.1665 21.5086 36.3931 21.321 36.5272 20.7746C36.7274 19.9597 37.2034 19.2123 37.6114 18.3867Z" fill="#F9F9FB"/>
<path d="M57.1431 40.5002C58.0393 42.0883 58.018 43.6114 57.231 45.1689C57.1151 45.3983 57.1681 45.851 57.3286 46.0568C58.2004 47.1742 59.1523 48.2296 60.0303 49.3426C60.4003 49.8116 60.7058 49.9329 61.3175 49.7222C63.3656 49.0165 65.2324 49.43 66.7377 50.992C68.178 52.4865 68.5923 54.2898 67.8748 56.253C67.1469 58.2447 65.67 59.407 63.5496 59.6251C61.5119 59.8347 59.8696 59.0402 58.7366 57.3447C57.5962 55.6381 57.6299 53.8418 58.533 52.0373C58.6474 51.8088 58.801 51.5998 58.9764 51.3174C57.7881 49.8937 56.5951 48.4646 55.3528 46.9762C53.8807 47.607 52.4168 47.4876 50.9556 46.8923C49.3971 46.2573 48.475 44.2608 48.9237 42.3608C49.2892 40.813 50.2333 39.7501 51.6911 39.0968C51.9485 38.9815 52.2779 38.6432 52.2806 38.4046C52.3189 34.9952 52.3067 31.5854 52.3067 28.2013C49.5666 26.9433 48.4196 25.1515 48.8873 22.9212C49.358 20.6772 51.3571 19.0013 53.55 19.0124C55.6818 19.0233 57.3006 20.3044 57.7341 22.3237C58.2329 24.6468 57.0867 26.5127 54.3641 27.7482C54.3641 31.2839 54.3641 34.8438 54.3641 38.1142C55.3729 38.9702 56.2387 39.7049 57.1431 40.5002Z" fill="#F9F9FB"/>
<path d="M30.738 32.3574C33.132 31.56 35.1503 32.1216 36.0772 34.0098C36.4756 34.8213 36.5187 35.8537 36.5233 36.7867C36.5262 37.3808 36.6596 37.7312 37.1337 38.0487C37.9634 38.6044 38.7804 39.1815 39.5725 39.7883C40.2703 40.3229 40.9244 40.6334 41.9089 40.4994C43.6256 40.2656 44.9031 41.3885 45.0814 43.0039C45.2502 44.5324 44.2281 45.7583 42.5656 46.0952C42.3046 46.1481 42.0134 46.3856 41.872 46.6185C41.5742 47.1092 41.3769 47.6586 41.1195 48.1747C40.6361 49.144 40.3193 49.9601 40.9487 51.1551C41.8872 52.9371 40.8478 55.0246 39.0324 55.7455C37.2669 56.4467 35.269 55.6105 34.5231 53.8582C33.7835 52.1206 34.587 50.1386 36.3469 49.363C36.4649 49.311 36.5964 49.2163 36.7077 49.2329C38.2501 49.4625 38.5189 48.2651 38.9723 47.2718C39.1718 46.8346 39.449 46.4151 39.5524 45.957C39.6457 45.5433 39.5762 45.085 39.5275 44.652C39.4997 44.4049 39.2647 44.1509 39.3034 43.9311C39.5121 42.7466 38.703 42.2371 37.8967 41.6899C37.1235 41.1652 36.3496 40.6352 35.6264 40.0469C35.0912 39.6115 34.6709 39.5423 34.0113 39.8894C32.3657 40.7554 30.0732 40.2466 28.9787 38.8896C27.7484 37.3643 27.6631 35.3245 28.8864 33.8414C29.3635 33.263 30.0694 32.8697 30.738 32.3574Z" fill="#F9F9FB"/>
<path d="M54.8195 61.4716C55.1938 62.0484 55.5439 62.3111 56.2744 62.1795C57.6655 61.9287 59.0469 62.83 59.5982 64.1464C60.146 65.4544 59.7499 67.0134 58.6424 67.9076C57.5023 68.8282 55.9756 68.9029 54.7833 68.0964C53.6023 67.2976 52.9757 65.7658 53.5145 64.4449C53.8211 63.6932 53.6325 63.264 53.1876 62.7456C52.6422 62.1099 52.1281 61.4456 51.6241 60.7758C51.0135 59.9644 50.5198 59.3109 49.1989 59.4452C47.3762 59.6305 45.882 57.676 46.1325 55.8863C46.392 54.0326 48.2006 52.6924 49.9546 53.054C51.873 53.4495 53.0784 55.2952 52.4655 57.1232C52.1989 57.9183 52.3325 58.4173 52.8455 58.9958C53.5291 59.7666 54.1369 60.6052 54.8195 61.4716Z" fill="#F9F9FB"/>
<path d="M66.8181 35.5653C66.9698 35.9623 67.1116 36.2842 67.2292 36.6142C67.5887 37.6236 67.9548 38.4294 69.2726 38.7864C71.0561 39.2695 71.7093 41.3567 70.8764 42.9634C70.0496 44.5583 67.9932 45.1472 66.4355 44.235C64.8506 43.307 64.3646 41.3233 65.453 39.8486C65.8561 39.3025 65.887 38.8776 65.6407 38.2924C65.0719 36.9408 64.5936 35.5526 64.0053 34.2097C63.8718 33.9049 63.4745 33.5904 63.14 33.5089C61.6838 33.1545 60.6183 32.0908 60.5228 30.7718C60.4158 29.2933 61.161 28.0615 62.4655 27.5605C63.7901 27.0517 65.299 27.4503 66.1658 28.5379C67.0429 29.6383 67.1106 31.1176 66.2162 32.2527C65.834 32.7376 65.8281 33.1223 66.0547 33.6276C66.3286 34.2385 66.552 34.8708 66.8181 35.5653Z" fill="#F9F9FB"/>
<path d="M44.1502 29.3469C46.2537 29.2613 47.4146 30.021 47.7247 31.6172C48.0115 33.0931 47.1655 34.5741 45.7206 35.1256C44.2771 35.6766 42.6311 35.1222 41.8116 33.8089C40.7703 32.1402 41.8524 30.0146 44.1502 29.3469Z" fill="#F9F9FB"/>
</g>
</g>
<defs>
<clipPath id="clip0_498_1193">
<rect width="86" height="86" fill="white"/>
</clipPath>
<clipPath id="clip1_498_1193">
<rect width="58.9714" height="58.6364" fill="white" transform="translate(13.2686 13.6818)"/>
</clipPath>
</defs>
</svg>
